<mxfile host="app.diagrams.net" modified="2024-01-29T08:05:52.258Z" agent="Mozilla/5.0 (Windows NT 10.0; Win64; x64) AppleWebKit/537.36 (KHTML, like Gecko) Chrome/120.0.0.0 Safari/537.36" etag="fO_ywIWLvrNhuomrwk67" version="23.0.2" type="github">
  <diagram name="Halaman-1" id="Q43knVWY98DQgZFSpsff">
    <mxGraphModel dx="880" dy="446" grid="1" gridSize="10" guides="1" tooltips="1" connect="1" arrows="1" fold="1" page="1" pageScale="1" pageWidth="827" pageHeight="1169" math="0" shadow="0">
      <root>
        <mxCell id="0" />
        <mxCell id="1" parent="0" />
        <mxCell id="EkUFwFXJIUSXVd6cHu1z-1" value="" style="rounded=0;whiteSpace=wrap;html=1;" vertex="1" parent="1">
          <mxGeometry x="40" y="150" width="100" height="50" as="geometry" />
        </mxCell>
        <mxCell id="EkUFwFXJIUSXVd6cHu1z-3" value="user" style="text;html=1;strokeColor=none;fillColor=none;align=center;verticalAlign=middle;whiteSpace=wrap;rounded=0;" vertex="1" parent="1">
          <mxGeometry x="50" y="160" width="60" height="30" as="geometry" />
        </mxCell>
        <mxCell id="EkUFwFXJIUSXVd6cHu1z-5" value="" style="endArrow=classic;html=1;rounded=0;" edge="1" parent="1">
          <mxGeometry width="50" height="50" relative="1" as="geometry">
            <mxPoint x="140" y="179.5" as="sourcePoint" />
            <mxPoint x="220" y="179.5" as="targetPoint" />
          </mxGeometry>
        </mxCell>
        <mxCell id="EkUFwFXJIUSXVd6cHu1z-6" value="" style="rounded=0;whiteSpace=wrap;html=1;" vertex="1" parent="1">
          <mxGeometry x="220" y="150" width="120" height="60" as="geometry" />
        </mxCell>
        <mxCell id="EkUFwFXJIUSXVd6cHu1z-7" value="mengunjungi perpus" style="text;html=1;strokeColor=none;fillColor=none;align=center;verticalAlign=middle;whiteSpace=wrap;rounded=0;" vertex="1" parent="1">
          <mxGeometry x="220" y="170" width="120" height="20" as="geometry" />
        </mxCell>
        <mxCell id="EkUFwFXJIUSXVd6cHu1z-17" value="isi from kunjungan" style="rounded=1;whiteSpace=wrap;html=1;" vertex="1" parent="1">
          <mxGeometry x="380" y="100" width="120" height="60" as="geometry" />
        </mxCell>
        <mxCell id="EkUFwFXJIUSXVd6cHu1z-21" value="" style="curved=1;endArrow=classic;html=1;rounded=0;" edge="1" parent="1">
          <mxGeometry width="50" height="50" relative="1" as="geometry">
            <mxPoint x="330" y="195" as="sourcePoint" />
            <mxPoint x="380" y="125" as="targetPoint" />
            <Array as="points">
              <mxPoint x="380" y="195" />
              <mxPoint x="330" y="115" />
            </Array>
          </mxGeometry>
        </mxCell>
        <mxCell id="EkUFwFXJIUSXVd6cHu1z-22" value="" style="endArrow=classic;html=1;rounded=0;" edge="1" parent="1">
          <mxGeometry width="50" height="50" relative="1" as="geometry">
            <mxPoint x="500" y="129.5" as="sourcePoint" />
            <mxPoint x="580" y="129.5" as="targetPoint" />
          </mxGeometry>
        </mxCell>
        <mxCell id="EkUFwFXJIUSXVd6cHu1z-23" value="kirim" style="rounded=1;whiteSpace=wrap;html=1;" vertex="1" parent="1">
          <mxGeometry x="580" y="110" width="100" height="40" as="geometry" />
        </mxCell>
        <mxCell id="EkUFwFXJIUSXVd6cHu1z-25" style="edgeStyle=orthogonalEdgeStyle;rounded=0;orthogonalLoop=1;jettySize=auto;html=1;exitX=0.25;exitY=0;exitDx=0;exitDy=0;entryX=0;entryY=0.25;entryDx=0;entryDy=0;" edge="1" parent="1" source="EkUFwFXJIUSXVd6cHu1z-7" target="EkUFwFXJIUSXVd6cHu1z-7">
          <mxGeometry relative="1" as="geometry" />
        </mxCell>
        <mxCell id="EkUFwFXJIUSXVd6cHu1z-26" style="edgeStyle=orthogonalEdgeStyle;rounded=0;orthogonalLoop=1;jettySize=auto;html=1;exitX=0.25;exitY=1;exitDx=0;exitDy=0;entryX=0.108;entryY=1.15;entryDx=0;entryDy=0;entryPerimeter=0;" edge="1" parent="1" source="EkUFwFXJIUSXVd6cHu1z-7" target="EkUFwFXJIUSXVd6cHu1z-7">
          <mxGeometry relative="1" as="geometry" />
        </mxCell>
        <mxCell id="EkUFwFXJIUSXVd6cHu1z-29" value="" style="endArrow=classic;html=1;rounded=0;" edge="1" parent="1">
          <mxGeometry width="50" height="50" relative="1" as="geometry">
            <mxPoint x="680" y="129.5" as="sourcePoint" />
            <mxPoint x="720" y="129.5" as="targetPoint" />
          </mxGeometry>
        </mxCell>
        <mxCell id="EkUFwFXJIUSXVd6cHu1z-30" value="daptar kunjungan" style="rounded=1;whiteSpace=wrap;html=1;" vertex="1" parent="1">
          <mxGeometry x="720" y="115" width="100" height="30" as="geometry" />
        </mxCell>
        <mxCell id="EkUFwFXJIUSXVd6cHu1z-34" value="" style="endArrow=none;html=1;rounded=0;" edge="1" parent="1">
          <mxGeometry width="50" height="50" relative="1" as="geometry">
            <mxPoint x="790" y="145" as="sourcePoint" />
            <mxPoint x="790" y="145" as="targetPoint" />
            <Array as="points">
              <mxPoint x="790" y="200" />
            </Array>
          </mxGeometry>
        </mxCell>
        <mxCell id="EkUFwFXJIUSXVd6cHu1z-35" value="" style="curved=1;endArrow=classic;html=1;rounded=0;" edge="1" parent="1">
          <mxGeometry width="50" height="50" relative="1" as="geometry">
            <mxPoint x="320" y="210" as="sourcePoint" />
            <mxPoint x="390" y="250" as="targetPoint" />
            <Array as="points">
              <mxPoint x="380" y="270" />
              <mxPoint x="330" y="220" />
            </Array>
          </mxGeometry>
        </mxCell>
        <mxCell id="EkUFwFXJIUSXVd6cHu1z-36" value="pencarian buku" style="rounded=1;whiteSpace=wrap;html=1;" vertex="1" parent="1">
          <mxGeometry x="390" y="240" width="100" height="50" as="geometry" />
        </mxCell>
        <mxCell id="EkUFwFXJIUSXVd6cHu1z-37" value="" style="endArrow=classic;html=1;rounded=0;" edge="1" parent="1">
          <mxGeometry width="50" height="50" relative="1" as="geometry">
            <mxPoint x="490" y="264.5" as="sourcePoint" />
            <mxPoint x="560" y="264.5" as="targetPoint" />
            <Array as="points">
              <mxPoint x="550" y="264.5" />
              <mxPoint x="560" y="264.5" />
            </Array>
          </mxGeometry>
        </mxCell>
        <mxCell id="EkUFwFXJIUSXVd6cHu1z-38" value="masukan kata kunci judul" style="rounded=1;whiteSpace=wrap;html=1;" vertex="1" parent="1">
          <mxGeometry x="560" y="240" width="110" height="50" as="geometry" />
        </mxCell>
        <mxCell id="EkUFwFXJIUSXVd6cHu1z-41" value="" style="endArrow=classic;html=1;rounded=0;" edge="1" parent="1">
          <mxGeometry width="50" height="50" relative="1" as="geometry">
            <mxPoint x="670" y="270" as="sourcePoint" />
            <mxPoint x="740" y="270" as="targetPoint" />
            <Array as="points">
              <mxPoint x="710" y="270" />
            </Array>
          </mxGeometry>
        </mxCell>
        <mxCell id="EkUFwFXJIUSXVd6cHu1z-42" value="hasil pencarian" style="rounded=1;whiteSpace=wrap;html=1;" vertex="1" parent="1">
          <mxGeometry x="740" y="240" width="120" height="60" as="geometry" />
        </mxCell>
        <mxCell id="EkUFwFXJIUSXVd6cHu1z-44" value="" style="endArrow=classic;html=1;rounded=0;" edge="1" parent="1">
          <mxGeometry width="50" height="50" relative="1" as="geometry">
            <mxPoint x="810" y="300" as="sourcePoint" />
            <mxPoint x="810" y="370" as="targetPoint" />
          </mxGeometry>
        </mxCell>
        <mxCell id="EkUFwFXJIUSXVd6cHu1z-45" value="lihat rincian buku" style="rounded=1;whiteSpace=wrap;html=1;" vertex="1" parent="1">
          <mxGeometry x="750" y="370" width="120" height="60" as="geometry" />
        </mxCell>
        <mxCell id="EkUFwFXJIUSXVd6cHu1z-48" value="" style="endArrow=classic;html=1;rounded=0;entryX=0;entryY=0.5;entryDx=0;entryDy=0;" edge="1" parent="1" target="EkUFwFXJIUSXVd6cHu1z-45">
          <mxGeometry width="50" height="50" relative="1" as="geometry">
            <mxPoint x="430" y="399.5" as="sourcePoint" />
            <mxPoint x="530" y="399.5" as="targetPoint" />
          </mxGeometry>
        </mxCell>
        <mxCell id="EkUFwFXJIUSXVd6cHu1z-51" value="" style="endArrow=none;html=1;rounded=0;entryX=0.4;entryY=1;entryDx=0;entryDy=0;entryPerimeter=0;" edge="1" parent="1" target="EkUFwFXJIUSXVd6cHu1z-36">
          <mxGeometry width="50" height="50" relative="1" as="geometry">
            <mxPoint x="430" y="400" as="sourcePoint" />
            <mxPoint x="430" y="320" as="targetPoint" />
          </mxGeometry>
        </mxCell>
        <mxCell id="EkUFwFXJIUSXVd6cHu1z-53" value="" style="endArrow=classic;html=1;rounded=0;" edge="1" parent="1">
          <mxGeometry width="50" height="50" relative="1" as="geometry">
            <mxPoint x="450" y="200" as="sourcePoint" />
            <mxPoint x="450" y="160" as="targetPoint" />
          </mxGeometry>
        </mxCell>
        <mxCell id="EkUFwFXJIUSXVd6cHu1z-58" value="" style="endArrow=none;html=1;rounded=0;" edge="1" parent="1">
          <mxGeometry width="50" height="50" relative="1" as="geometry">
            <mxPoint x="450" y="200" as="sourcePoint" />
            <mxPoint x="800" y="200" as="targetPoint" />
          </mxGeometry>
        </mxCell>
      </root>
    </mxGraphModel>
  </diagram>
</mxfile>
